<?xml version="1.0" encoding="UTF-8" standalone="no"?>
<svg
   version="1.1"
   width="4000"
   height="4000"
   viewBox="-1820 -1640 4000 4000"
   id="svg4"
   xmlns="http://www.w3.org/2000/svg"
   xmlns:svg="http://www.w3.org/2000/svg">
  <defs
     id="defs4" />
  <g
     fill="#f60700"
     fill-rule="nonzero"
     stroke="#ff7803"
     stroke-width="0"
     stroke-linecap="round"
     stroke-linejoin="round"
     stroke-miterlimit="10"
     stroke-dasharray="none"
     stroke-dashoffset="0"
     font-family="none"
     font-weight="none"
     font-size="none"
     text-anchor="none"
     style="mix-blend-mode:normal"
     id="g4"
     transform="matrix(5.0573407,0,0,5.0573407,-6595.6087,-1285.5124)">
    <g
       id="stage">
      <g
         id="layer1 1">
        <g
           id="Group 1">
          <path
             d="m 1256.7241,55.58848 c 9.7031,-24.49952 29.9523,-43.73844 55.2379,-52.01152 8.2711,-2.70621 17.0812,-4.23907 26.2373,-4.39889 10.2521,-0.17894 20.1306,1.3776 29.3552,4.39889 11.5625,3.78702 22.0977,9.87535 31.0537,17.73187 18.2553,16.01429 29.949,39.3753 30.4062,65.56837 0.2429,13.91377 -2.7108,27.13951 -8.1845,38.97654 -13.9191,30.10062 -44.133,51.22101 -79.5147,51.83856 -49.2953,0.86044 -89.9546,-38.40381 -90.8151,-87.69914 -0.032,-1.82716 -0.01,-3.6424 0.068,-5.44426 0.2135,-5.00763 5.1472,-24.19467 6.1557,-28.96043 z"
             id="path3" />
          <path
             d="m 1185.1312,443.05046 23.4525,-110.33519 3.6319,-17.08684 c 8.2184,-21.06826 28.4135,-34.09563 49.9007,-34.09984 h 18.3314 135.6873 c 6.0809,10e-4 12.2651,1.04547 18.3103,3.24578 18.0056,6.55346 30.3634,21.75518 34.09,39.20685 l 84.8931,396.85461 h -427.3423 z"
             id="path4" />
        </g>
      </g>
    </g>
  </g>
</svg>
